<?xml version="1.0" standalone="no"?>
<!DOCTYPE svg PUBLIC "-//W3C//DTD SVG 20010904//EN"
 "http://www.w3.org/TR/2001/REC-SVG-20010904/DTD/svg10.dtd">
<svg version="1.0" xmlns="http://www.w3.org/2000/svg"
 width="500.000000pt" height="500.000000pt" viewBox="0 0 500.000000 500.000000"
 preserveAspectRatio="xMidYMid meet">

<g transform="translate(0.000000,500.000000) scale(0.100000,-0.100000)"
fill="#000000" stroke="none">
<path d="M2220 3287 c0 -18 28 -73 43 -86 16 -12 16 -11 1 25 -15 37 -44 77
-44 61z"/>
<path d="M3377 3019 c11 -19 43 -74 71 -124 27 -49 64 -114 81 -144 26 -44 30
-56 19 -66 -12 -11 -173 -105 -275 -161 -24 -13 -43 -20 -43 -16 0 4 -13 7
-29 7 -26 1 -28 -1 -18 -15 21 -26 41 -39 63 -40 11 0 90 42 175 93 112 68
155 99 157 115 3 21 -188 365 -211 379 -6 3 -1 -9 10 -28z"/>
<path d="M1799 2773 c26 -53 51 -140 51 -181 0 -47 -44 -106 -68 -93 -9 5 -19
8 -22 8 -5 -2 -142 75 -223 126 -26 16 -50 27 -53 24 -6 -6 -6 -6 171 -114 72
-44 138 -82 147 -86 24 -9 66 28 77 68 9 32 0 98 -25 184 -5 17 -4 22 4 17 22
-13 12 4 -24 44 -46 50 -60 51 -35 3z"/>
<path d="M3147 2750 c-44 -58 -69 -117 -82 -192 -3 -21 -9 -38 -13 -39 -4 0
-56 -1 -115 -3 -81 -2 -111 -6 -118 -17 -7 -12 -9 -12 -9 1 0 12 -2 13 -9 1
-7 -10 -23 -12 -72 -7 -35 4 -149 2 -254 -3 -104 -6 -230 -13 -280 -16 -113
-6 -187 -14 -193 -20 -3 -3 -11 0 -19 6 -9 9 -13 8 -13 0 0 -6 -9 -11 -20 -11
-24 0 -23 33 -10 -382 7 -221 13 -316 23 -340 17 -40 77 -95 115 -105 15 -5
223 -8 462 -8 483 0 479 0 520 67 25 42 30 107 40 528 8 358 14 418 44 445 6
6 25 43 43 83 40 91 23 96 -40 12z m-412 -1011 c-75 -22 -236 -32 -334 -20
-187 23 -164 29 104 29 169 0 249 -3 230 -9z"/>
</g>
</svg>
